inDegrees=yes
name=ik_lifting_orientations
DataType=double
version=3
OpenSimVersion=4.5-2024-01-10-34fd6af
endheader
time	pelvis_tilt	pelvis_list	pelvis_rotation	pelvis_tx	pelvis_ty	pelvis_tz	hip_flexion_r	hip_adduction_r	hip_rotation_r	knee_angle_r	knee_angle_r_beta	ankle_angle_r	subtalar_angle_r	mtp_angle_r	hip_flexion_l	hip_adduction_l	hip_rotation_l	knee_angle_l	knee_angle_l_beta	ankle_angle_l	subtalar_angle_l	mtp_angle_l	lumbar_extension	lumbar_bending	lumbar_rotation	arm_flex_r	arm_add_r	arm_rot_r	elbow_flex_r	pro_sup_r	wrist_flex_r	wrist_dev_r	arm_flex_l	arm_add_l	arm_rot_l	elbow_flex_l	pro_sup_l	wrist_flex_l	wrist_dev_l
0.84	-1.767371720056157	21.16207255991792	-111.143661556329	0	0.9399999998679526	0	44.24449335334756	-10.1979459252532	0	58.85022515717	1.027130194532614	-5.052152141673645	0	0	44.24449335334756	-10.1979459252532	0	58.85022515717	1.027130194532614	-5.052152141673645	0	0	-18.56927817072562	-8.125929510497047	24.37096505772649	36.19377086769458	-0.1698592954954172	1.35337045138865	10.99128953196219	3.720258420970013	0	0	0	-10.74884288559274	0	86.32425116159808	3.720258420970013	0	0
0.85	-1.822335563742282	22.04313165249717	-111.4344703616703	0	0.9399999998679526	0	44.24471937016499	-10.19773917792482	0	58.85049538806405	1.027134910951456	-5.052081098328459	0	0	44.24471937016499	-10.19773917792482	0	58.85049538806405	1.027134910951456	-5.052081098328459	0	0	-18.86554082224286	-8.384140672059811	24.75172134776305	37.04227133857703	-0.2602842687403784	0.9997820703614014	11.19447678149163	3.719482701065906	0	0	0	-10.74949520173936	0	86.32501753542299	3.719482701065906	0	0
0.86	-1.975518519970371	22.73272074498695	-111.3204611533268	0	0.9399999998679526	0	44.24494461657894	-10.19753341064981	0	58.85076482674051	1.027139613543492	-5.052010423531543	0	0	44.24494461657894	-10.19753341064981	0	58.85076482674051	1.027139613543492	-5.052010423531543	0	0	-19.04239208433947	-9.216044698108064	25.36645118605621	37.77407521152448	0.1057955440334008	-0.6557915875435362	11.28474525677952	3.718709430447897	0	0	0	-10.75014558176585	0	86.32578148951623	3.718709430447897	0	0
0.87	-2.196948480320095	23.58343705740519	-111.0419007608055	0	0.9399999998679526	0	44.2453607080344	-10.19715385328688	0	58.85126200484088	1.027148290938312	-5.051880184215987	0	0	44.2453607080344	-10.19715385328688	0	58.85126200484088	1.027148290938312	-5.051880184215987	0	0	-19.26914651144433	-9.027174563824893	24.93537508799567	38.33072273677658	0.214987382039162	-1.050962575095491	11.78638823542665	3.7172813159368	0	0	0	-10.75134633223292	0	86.32719239772517	3.7172813159368	0	0
0.88	-2.397276558286628	24.51000963432411	-111.0783004283462	0	0.9399999998679526	0	44.24568186020899	-10.19686224157522	0	58.85164663083393	1.02715500392828	-5.05178025406604	0	0	44.24568186020899	-10.19686224157522	0	58.85164663083393	1.02715500392828	-5.05178025406604	0	0	-19.2612469695254	-9.011837021142579	25.10020041742125	38.802028053532	0.1590334750645676	-1.642310000985876	12.49625620102186	3.7161779225511	0	0	0	-10.75227481121823	0	86.32828249737932	3.7161779225511	0	0
0.89	-2.569681476891861	25.14423697949091	-111.1838152383576	0	0.9399999998679526	0	44.2460567014082	-10.19652128946547	0	58.85209478015237	1.027162825609427	-5.051663391096521	0	0	44.2460567014082	-10.19652128946547	0	58.85209478015237	1.027162825609427	-5.051663391096521	0	0	-19.49383640801288	-9.132579558595324	25.32231080727282	38.90116573402789	0.0468808745696276	-2.305932243033544	13.58632937670163	3.714890832875684	0	0	0	-10.75335731216961	0	86.32955407999535	3.714890832875684	0	0
0.9	-2.721092368519862	25.79054445400741	-111.2792525123275	0	0.9399999998679526	0	44.24643451243573	-10.19617803873165	0	58.85254649729744	1.027170709560896	-5.0515458012656	0	0	44.24643451243573	-10.19617803873165	0	58.85254649729744	1.027170709560896	-5.0515458012656	0	0	-19.75376100231996	-9.085502813627974	25.2715454419416	38.97339629171852	-0.05139018071710524	-2.575867696227705	14.767270276454	3.713593383874132	0	0	0	-10.75444860145515	0	86.33083589717177	3.713593383874132	0	0
0.91	-2.888991416748715	26.09858683322701	-111.0420343310253	0	0.9399999998679526	0	44.24706453314798	-10.19560706028317	0	58.85329998698097	1.027183860436754	-5.051350395079909	0	0	44.24706453314798	-10.19560706028317	0	58.85329998698097	1.027183860436754	-5.051350395079909	0	0	-20.10014399721724	-9.199337189145446	25.55026706267938	38.78786600515718	-0.3142232643943874	-3.423532195751736	16.08141700469725	3.711429166345266	0	0	0	-10.75626925621461	0	86.33297404009807	3.711429166345266	0	0
0.92	-3.308809642135338	26.74983730368664	-110.3308930410762	0	0.9399999998679526	0	44.2476377647743	-10.19508969815023	0	58.85398661312316	1.027195844323665	-5.051173580207016	0	0	44.2476377647743	-10.19508969815023	0	58.85398661312316	1.027195844323665	-5.051173580207016	0	0	-20.237396396422	-8.787823568312096	25.52393985265097	38.53753700715132	-0.4889896313689933	-4.127942021746177	17.46705315720119	3.709458479605421	0	0	0	-10.75792808101757	0	86.33492098425062	3.709458479605421	0	0
0.93	-3.671212769472756	27.28580647699589	-109.9298667480818	0	0.9399999998679526	0	44.24789484052912	-10.19485700590044	0	58.85429428136425	1.027201214147476	-5.051093977194083	0	0	44.24789484052912	-10.19485700590044	0	58.85429428136425	1.027201214147476	-5.051093977194083	0	0	-20.43467094984177	-8.610835176736037	25.65428589109952	38.40563083010631	-0.5632607924124524	-4.588933212607665	18.47224551979905	3.708575018166805	0	0	0	-10.7586715952789	0	86.33579380181615	3.708575018166805	0	0
0.9399999999999999	-3.866652418454881	27.58672517122035	-109.8689564664698	0	0.9399999998679526	0	44.24807645111133	-10.19469272498933	0	58.85451163331678	1.027205007654683	-5.051037793559324	0	0	44.24807645111133	-10.19469272498933	0	58.85451163331678	1.027205007654683	-5.051037793559324	0	0	-20.72600827743952	-8.730832252087517	25.83498493572017	38.43895647731667	-0.5019076011087988	-4.73652582876364	19.10360270742049	3.70795085917202	0	0	0	-10.75919690054777	0	86.33641044100459	3.70795085917202	0	0
0.95	-4.162023572181316	27.84998519774746	-109.364295302591	0	0.9399999998679526	0	44.24825650233931	-10.19453027414347	0	58.85472749676098	1.027208775182519	-5.050982269314807	0	0	44.24825650233931	-10.19453027414347	0	58.85472749676098	1.027208775182519	-5.050982269314807	0	0	-20.7332977747313	-8.464425386570083	25.78428835681787	38.04952217121559	-0.5965772053386136	-4.64178279985508	19.73853456091298	3.707331616421503	0	0	0	-10.75971838377216	0	86.33702222327632	3.707331616421503	0	0
0.96	-4.748712736650761	28.16668715094217	-108.0411113499552	0	0.9399999998679526	0	44.24848116098353	-10.1943278223233	0	58.85499697249215	1.027213478421283	-5.050913100164459	0	0	44.24848116098353	-10.1943278223233	0	58.85499697249215	1.027213478421283	-5.050913100164459	0	0	-20.94357545411063	-7.90362407894542	25.35300997247329	37.89445144668336	-0.751775050687494	-4.662421991349525	20.44279236100034	3.706558765350985	0	0	0	-10.76036935142543	0	86.3377857632784	3.706558765350985	0	0
0.97	-5.489239502053502	28.52897836899305	-106.2911633076125	0	0.9399999998679526	0	44.24870343596201	-10.19412832381146	0	58.8552643190298	1.027218144498608	-5.050845003803445	0	0	44.24870343596201	-10.19412832381146	0	58.8552643190298	1.027218144498608	-5.050845003803445	0	0	-21.18105899494333	-7.08462437901831	24.70038411265158	38.22791172840895	-0.9026581489451537	-4.892392733652513	20.59206701882197	3.705793264713592	0	0	0	-10.76101473077834	0	86.33854204158705	3.705793264713592	0	0
